<svg width="15" height="15" viewBox="0 0 15 15" fill="none" xmlns="http://www.w3.org/2000/svg">
<path d="M3.88889 7.05823H3.60433C3.31901 7.05816 3.04006 7.1426 2.80267 7.30089L1 8.50267V2.00267C1 1.61958 1.15218 1.25218 1.42307 0.981295C1.69395 0.71041 2.06135 0.558228 2.44444 0.558228H7.5C7.88309 0.558228 8.25049 0.71041 8.52138 0.981295C8.79226 1.25218 8.94444 1.61958 8.94444 2.00267V3.44712M7.5 5.61378H12.5556C12.9386 5.61378 13.306 5.76597 13.5769 6.03685C13.8478 6.30774 14 6.67514 14 7.05823V13.5582L12.1973 12.3564C11.9599 12.1982 11.681 12.1137 11.3957 12.1138H7.5C7.11691 12.1138 6.74951 11.9616 6.47862 11.6907C6.20774 11.4198 6.05556 11.0524 6.05556 10.6693V7.05823C6.05556 6.67514 6.20774 6.30774 6.47862 6.03685C6.74951 5.76597 7.11691 5.61378 7.5 5.61378Z" stroke="#66676B" stroke-linecap="round" stroke-linejoin="round"/>
</svg>
