<svg width="26" height="25" viewBox="0 0 26 25" fill="none" xmlns="http://www.w3.org/2000/svg">
<path d="M24.188 15.0942L10.7406 1.8097C8.49937 -0.492958 4.82374 -0.492958 2.49285 1.72113C0.161969 3.93522 0.161969 7.65489 2.49285 9.86898L2.5825 9.95755L5.09269 12.5259L6.34778 11.286L3.74795 8.71766C2.22391 7.21207 2.22391 4.64373 3.74795 3.13815C5.27199 1.63257 7.87182 1.544 9.39586 3.04959L9.48551 3.13815L22.8433 16.3341C24.457 17.8397 24.457 20.408 22.9329 21.9136C21.4089 23.5078 18.809 23.5078 17.285 22.0022L17.1954 21.9136L10.5613 15.3599C9.66481 14.4743 9.75446 13.0573 10.5613 12.2602C11.4578 11.4631 12.8025 11.4631 13.699 12.2602L17.3747 15.8913L18.6298 14.6514L14.8645 10.9317C13.2508 9.42616 10.7406 9.51473 9.21656 11.1089C7.78217 12.6145 7.78217 15.0057 9.21656 16.5998L15.9403 23.2421C18.1815 25.5447 21.8571 25.5447 24.188 23.3306C26.5189 21.1166 26.5189 17.3969 24.188 15.0942Z" fill="#767676"/>
</svg>
