<svg width="35" height="37" viewBox="0 0 35 37" fill="none" xmlns="http://www.w3.org/2000/svg">
<path d="M13.54 0C13.3438 0 13.1555 0.0779641 13.0168 0.216741C12.878 0.355518 12.8 0.54374 12.8 0.74V2.22C12.8 2.41626 12.878 2.60448 13.0168 2.74326C13.1555 2.88204 13.3438 2.96 13.54 2.96H14.65V4.91915C6.64471 5.84045 0.405029 12.6573 0.405029 20.905C0.405029 29.7787 7.62632 37 16.5 37C25.3737 37 32.595 29.7787 32.595 20.905C32.5976 17.8678 31.7351 14.8926 30.1086 12.3277L31.6767 11.0582L32.3752 11.921C32.4364 11.9966 32.5118 12.0594 32.5972 12.1058C32.6825 12.1522 32.7762 12.1814 32.8729 12.1916C32.9695 12.2018 33.0673 12.1928 33.1605 12.1653C33.2536 12.1377 33.3405 12.0921 33.4161 12.0309L34.5668 11.0993C34.7191 10.9757 34.8161 10.7967 34.8365 10.6016C34.8569 10.4065 34.799 10.2112 34.6755 10.0588L30.9504 5.4575C30.8893 5.38194 30.8138 5.31916 30.7285 5.27274C30.6431 5.22632 30.5494 5.19718 30.4527 5.18697C30.3561 5.17677 30.2584 5.1857 30.1652 5.21327C30.072 5.24083 29.9851 5.28648 29.9096 5.34761L28.7589 6.27927C28.6065 6.40286 28.5095 6.58188 28.4891 6.77697C28.4687 6.97207 28.5266 7.16728 28.6501 7.31971L29.349 8.18255L27.7876 9.44573C25.2949 6.98967 22.0067 5.34095 18.35 4.91989V2.96H19.46C19.6563 2.96 19.8445 2.88204 19.9833 2.74326C20.1221 2.60448 20.2 2.41626 20.2 2.22V0.74C20.2 0.54374 20.1221 0.355518 19.9833 0.216741C19.8445 0.0779641 19.6563 0 19.46 0L13.54 0ZM16.5 7.4C23.974 7.4 30.005 13.431 30.005 20.905C30.005 28.379 23.974 34.41 16.5 34.41C9.02603 34.41 2.99503 28.379 2.99503 20.905C2.99503 13.431 9.02603 7.4 16.5 7.4ZM16.5008 10.1539L16.5 20.905L25.0966 27.3604C26.2957 25.7635 27.0264 23.8641 27.2066 21.8753C27.3869 19.8864 27.0096 17.8866 26.1171 16.1002C25.2246 14.3138 23.8521 12.8112 22.1537 11.761C20.4552 10.7108 18.4977 10.1545 16.5008 10.1543V10.1539Z" fill="#FFCD38"/>
</svg>
