<svg width="22" height="21" viewBox="0 0 22 21" fill="none" xmlns="http://www.w3.org/2000/svg">
<path d="M1.85114 0.263366C1.72563 0.201296 1.58502 0.175301 1.44531 0.188339C1.3056 0.201376 1.17239 0.252923 1.06084 0.337115C0.949288 0.421307 0.863873 0.534764 0.81431 0.664581C0.764747 0.794398 0.753025 0.935364 0.780478 1.07144L2.88432 8.26258C2.92355 8.39659 3.00023 8.51693 3.10554 8.60978C3.21085 8.70263 3.34051 8.76422 3.47964 8.78746L12.012 10.2005C12.4139 10.2791 12.4139 10.8484 12.012 10.927L3.47964 12.34C3.34051 12.3633 3.21085 12.4248 3.10554 12.5177C3.00023 12.6105 2.92355 12.7309 2.88432 12.8649L0.780478 20.056C0.753025 20.1921 0.764747 20.3331 0.81431 20.4629C0.863873 20.5927 0.949288 20.7062 1.06084 20.7904C1.17239 20.8746 1.3056 20.9261 1.44531 20.9391C1.58502 20.9522 1.72563 20.9262 1.85114 20.8641L21.3451 11.2265C21.4694 11.1649 21.574 11.0702 21.6471 10.9532C21.7202 10.8361 21.7589 10.7013 21.7589 10.5637C21.7589 10.4262 21.7202 10.2913 21.6471 10.1743C21.574 10.0572 21.4694 9.9626 21.3451 9.90097L1.85114 0.263366Z" fill="#767676"/>
</svg>
